<svg width="36" height="40" viewBox="0 0 36 40" fill="none" xmlns="http://www.w3.org/2000/svg">
<path fill-rule="evenodd" clip-rule="evenodd" d="M5.8166 6.03353C5.8166 4.92269 7.27115 4.02148 9.08933 4.02148H27.2711C28.7257 4.02148 30.1802 4.92269 30.1802 6.03353V34.9612C30.1802 35.831 28.7257 36.2913 27.6348 35.7081L19.9984 31.1877C18.9075 30.4985 17.0893 30.4985 15.9984 31.1877L8.36206 35.7081C7.63478 36.2913 5.8166 35.831 5.8166 34.9612V6.03353ZM9.09091 0H27.2727C32 0 36 2.7012 36 6.03372V34.9613C36 39.3156 28.3636 41.6119 23.6364 38.6987L18.1818 35.3903L12.7273 38.6987C7.63636 41.6119 0 39.3156 0 34.9613V6.03372C0 2.7012 4 0 9.09091 0Z" fill="black"/>
</svg>
